<svg viewBox="99.4623 261.5441 336.0753 195.9117" width="5000" height="2914.6994736001125" xmlns="http://www.w3.org/2000/svg" xmlns:xlink="http://www.w3.org/1999/xlink" preserveAspectRatio="none"><defs></defs><style>.a6izo4zJpcolor {fill:#285A84;fill-opacity:1;}.a6izo4zJpstrokeColor-str {stroke:#5EA669;stroke-opacity:1;}.aD6z1nYkhcolor {fill:#438FCE;fill-opacity:1;}.aD6z1nYkhstrokeColor-str {stroke:#5EA669;stroke-opacity:1;}.aIptOCySncolors-0 {fill:#0AC5A8;fill-opacity:1;}</style><g opacity="1" transform="rotate(0 99.4623 261.5441)">
<svg width="121.0074" height="150.0849" x="99.4623" y="261.5441" version="1.1" preserveAspectRatio="none" viewBox="0 0 150.19 186.28">
  <g transform="matrix(1 0 0 1 0 0)" class="aIptOCySncolors-0"><title>Asset 6</title><g data-name="Layer 2"><g data-name="Layer 1"><path d="M62,97a36.78,36.78,0,0,1-1.15,3.6,23.79,23.79,0,0,0-1.41,2.51c-.33,1.06-1.38,1.79-1.53,3s-1.29,1.84-1.61,2.95a4.65,4.65,0,0,1-.69,1.26A20.14,20.14,0,0,0,53,114.95a23.63,23.63,0,0,1-2.21,3.69c-1.12,1.94-2.09,4-3.36,5.82s-2.08,3.61-3.25,5.32c-1.63,2.38-3.08,4.88-4.86,7.15-1.59,2-3.14,4.08-4.71,6.12-1.76,2.29-3.91,4.26-5.66,6.57-1.55,2-3.16,4-4.74,6.06a4.89,4.89,0,0,1,0,4.29,5.3,5.3,0,0,1-3.65,2,2,2,0,0,0-1.57,1c-.45.86-1.34,1.42-1.55,2.42a2.07,2.07,0,0,1-.34.9c-1.9,2.2-3.11,4.88-4.93,7.13a.57.57,0,0,0,.7.49,2.94,2.94,0,0,0,.91-.26c2.27-1.22,4.29-2.86,6.76-3.73a10.4,10.4,0,0,0,2.43-1.59A17.78,17.78,0,0,1,29,165.52a21,21,0,0,0,2.25-.84,10.08,10.08,0,0,1,3.21-.94,17.22,17.22,0,0,0,3.77-.75,12.2,12.2,0,0,0,3.64-1.26,10,10,0,0,1,1.83-.57,19.36,19.36,0,0,0,3.6-1.37,6.91,6.91,0,0,1,4.27-.74l2.17-1c1-.42,2.24,0,3.27-.57,2.07-.27,4-1.4,6.12-1.24a1.34,1.34,0,0,0,.46-.13c1.05-.35,1.94-1.1,3.2-1,1.1.13,2.16-.65,3.32-.37a79.38,79.38,0,0,0,8.37-2.29c2.55-1,5.19-1.69,7.71-2.78a72.23,72.23,0,0,1,7.36-2.22,8.62,8.62,0,0,0,1.61-.88A2.16,2.16,0,0,0,94,145a10.46,10.46,0,0,0-1.36-.5,10.93,10.93,0,0,1-1.34-.51,11.83,11.83,0,0,1-1.21-.83l-6.7-1.57-1.67-1.12-15.11-3.25a31.67,31.67,0,0,1-3.27-1.76A22,22,0,0,1,61,133.28l-.82-3c.13-1.66,1.54-2.74,2.07-4.25,1.34-1.15,2.36-2.66,3.9-3.6a28.58,28.58,0,0,0,2.8-1.92c1.8-1.43,4.1-1.86,6-3,2.69-.55,5.1-1.92,7.74-2.65,1.85-.51,3.62-1.33,5.47-1.86,3.85-1.12,7.74-2.15,11.61-3.2,3.1-.85,6.2-1.71,9.31-2.52a7.09,7.09,0,0,0,3.39-1.83l-.9-1.25c-1.3-.78-3-1-4.18-2.15-1.52-.51-3.2-.59-4.44-1.78C98.39,99,93.7,98.57,89.37,97.3a3.77,3.77,0,0,1-1.46-2.5c.06-.3.16-.94.32-1.56.12-.46.3-.91.51-1.52a100.87,100.87,0,0,1,9.93-6.63c2-.76,4-1.27,6-2.13a53.86,53.86,0,0,1,11.67-2.82,34.46,34.46,0,0,0,4.73-.8,17.66,17.66,0,0,1,2-.17l2.6-1.08h1.71c2-1.42,4.75-1.36,6.87-2.76l.32-1.07-2.36-1.84c-1-.27-2-.63-3.14-.87-1.44-.31-2.46-1.51-4-1.67a38.27,38.27,0,0,1-3.79-.8c-1.42-.3-2.85-.57-3.89-.78-1.35-.74-2.36-1.23-3.3-1.83a3.2,3.2,0,0,1-1-1.08,2.26,2.26,0,0,1,.09-2.12l3.19-3.17A45.45,45.45,0,0,1,126,56.88c2-.42,4.1-.68,6.12-1.27a38.45,38.45,0,0,1,6.17-.95c1.11-.13,2.2-.46,3.31-.66s2.21-.37,3.32-.52c1.42-.19,2.85-.38,4.28-.51a1.76,1.76,0,0,1,.85.35c.09,0,.1.22.15.34a22.84,22.84,0,0,1-4.2.88c-1.41.24-2.8.66-4.23.9-2.37.4-4.72.86-7.08,1.33-2.52.5-5.07.82-7.54,1.55-2.31.69-4.65,1.26-7.26,2l-3.29,2.1L115,64.5l2,1.68L124,67.66l6.56,1.44A15.7,15.7,0,0,0,134,70.81a28.11,28.11,0,0,1,3.5,1.94l.91,1.53-.36,2.45a18.88,18.88,0,0,1-5.74,3.53A49.62,49.62,0,0,1,118.46,84c-1.43.2-2.86.39-4.26.71-.95.22-1.89.32-2.84.47a14.6,14.6,0,0,0-2.69,1.07,11.16,11.16,0,0,1-1.4.37,35.35,35.35,0,0,0-13.38,6.53,2.89,2.89,0,0,0-.5.75c1.09.83,2.46.7,3.68,1s2.22.42,3.33.64c1.27.25,2.54.51,3.8.8,1.1.25,2.2.54,3.17.78a8,8,0,0,0,1.77,1,10.62,10.62,0,0,1,3.82,2,7.59,7.59,0,0,0,2.46,1.48,2.27,2.27,0,0,1,.77.57c.47.43.91.89,1.3,1.27a6.13,6.13,0,0,1-.43,3.63,17.55,17.55,0,0,1-6.25,4.12c-3,1.24-5.9,2.54-8.91,3.68-1.65.63-3.39,1.06-5,1.79-1.77.81-3.77.94-5.43,2s-3.9,1.5-5.83,2.28-3.53,1.57-5.34,2.22a13.33,13.33,0,0,0-2.18,1c-2.1,1.2-4.44,1.93-6.4,3.39a29.75,29.75,0,0,0-3.45,2.64c.21.24.36.59.58.65,2.52.59,5,1.13,7.6,1.69l1.91,1.18c1.27.25,2.86.55,4.43.89,1.42.31,2.82.67,4.1,1l1.36.92,6.75,1.63a6.15,6.15,0,0,0,1.44,1,18.67,18.67,0,0,1,3.72,2.22,6.08,6.08,0,0,1,3,5.2c-.08,1.42-1.2,2.23-1.91,3.31a16.38,16.38,0,0,1-5,2.82c-1.82.65-3.53,1.59-5.36,2.18s-3.58,1.43-5.36,2.18a82.82,82.82,0,0,1-9.4,3.74,63.94,63.94,0,0,0-8,3.21,61,61,0,0,1-9,3.32c-2,.53-3.87,1.53-5.94,2a40.91,40.91,0,0,0-6,1.78c-3,1.13-6.11,2-9.19,2.9a4,4,0,0,0-.94.21c-2.35,1.46-5,2.12-7.53,3.2-3.24,1.4-6.52,2.7-9.87,3.82-2.13.71-4.39,1-6.45,2s-4.31,1.3-6.3,2.4a10.62,10.62,0,0,1-2.41.65l-2.2-.44-.61-1,.48-3.23c-.4-1.09-2-1.27-1.84-2.8l.78-1.21C.85,176.31.4,174.94,0,173.49l2.93-14.68c.51-1.38,1.37-2,1.49-3A14.6,14.6,0,0,1,5,153.53l1.92-1.6c.13-1.07-.83-1.71-.94-2.65a22.61,22.61,0,0,1,1.14-6.16l1-1.43c.14-.53.3-1.32.58-2.08.44-1.2.39-2.61,1.27-3.62s.74-2.48,1.57-3.51c1.14-1.4,1.15-3.37,2.45-4.68.52-1.7,1.89-3,2.2-4.8a24.83,24.83,0,0,0,1.45-2.5,25,25,0,0,1,1.7-2.88c2.68-3.22,4.48-7,7.2-10.24a21.8,21.8,0,0,0,2.63-4,32.77,32.77,0,0,1,2.36-3.62c.84-1.18,1.76-2.3,2.64-3.45s1.95-2.57,2.93-3.84a45.41,45.41,0,0,1,5.44-6.1l1.39-.55-1-3.94,1.29-5.8c.75-1.4,1.42-2.68,2.13-3.93a26.73,26.73,0,0,0,2.15-3.73c.46-1.25,1.41-2.13,1.91-3.33s1.38-2.12,1.95-3.28a22.1,22.1,0,0,1,2.28-3.11c1.61-2.2,3.31-4.33,4.77-6.66a74.61,74.61,0,0,1,4.69-6.13c1.68-2.16,3.41-4.27,5-6.47A9.68,9.68,0,0,1,71,37.31a1.87,1.87,0,0,0,.67-.68c1-2.66,3.41-4.23,5-6.41s3.35-4.32,5.09-6.43c2.05-2.47,4.44-4.64,6.64-7a22.11,22.11,0,0,0,1.65-1.75A14.48,14.48,0,0,1,94.81,11,9.22,9.22,0,0,0,96.6,9.19l4.6-1.93c.5-.63,1.19-1.52,1.89-2.39S105,3.72,106,3.14l.88-1.62A17.22,17.22,0,0,1,111.67,0l3.21.5c1.64.53,2.46,1.71,3.86,1.81.42,0,.84.45,1.2.75a5.17,5.17,0,0,1,.67.88l.56,2.56c-.21.74.41.28-.16.58L119.32,8l-1.41,1.95c-.87,3-.87,3-3.84,7.84l.41,2.63a1.35,1.35,0,0,1-1.79.39,29,29,0,0,1-2.44-1.67,19.83,19.83,0,0,0-6.83-6.95l-4-.79-2.73.75c-2.11,3-4,6-6.17,8.8-2.42,3.19-5,6.27-7.11,9.7-1,1.63-2.32,3.08-3.47,4.62a23.57,23.57,0,0,0-2.51,3.51A27.92,27.92,0,0,1,75,42.33c-.83,1.19-1.79,2.28-2.61,3.47s-1.22,2.25-2,3.26a7.79,7.79,0,0,0-1.77,2.86Q66,55.38,63.37,58.84c-.88,1.15-1.75,2.3-2.66,3.43A47.69,47.69,0,0,0,57.4,67c-.94,1.5-2.14,2.83-3.21,4.24-1.56,2-3.08,4.12-4.66,6.15a38.54,38.54,0,0,0-2.43,4.14,1.14,1.14,0,0,0,1.09,1.64,5.86,5.86,0,0,0,1,0c.48-.07.95-.19,1.57-.32L57.2,84.1c1.31,1,2.92,1.44,4.22,2.42a4.26,4.26,0,0,0,2.72.84,3.15,3.15,0,0,0,1.73-1.6c.73-1.61,1.77-3,2.62-4.58a12.31,12.31,0,0,1,1.16-2.1c1.58-1.84,2.5-4.12,4-6,1.11-1.39,1.75-3.07,2.92-4.42a23.5,23.5,0,0,0,2.72-4c.86-1.53,2.14-2.81,3.08-4.31,2.23-3.55,4.92-6.74,7.4-10.1s5.08-6.65,7.65-9.94c1.09-1.39,2.15-2.81,3.3-4.16a39.81,39.81,0,0,1,4.06-4.78c1.47-1.26,2.41-3,3.9-4.27a22.42,22.42,0,0,0,2.7-3.37,2.16,2.16,0,0,1,2.12-.63,1.43,1.43,0,0,1,.21,1.77c-1.37,2.35-2.61,4.76-4.19,7-1.1,1.56-2.63,2.86-3.18,4.79a15.4,15.4,0,0,0-2.91,4.41c-2,2.3-3.45,5-5.25,7.49-1.23,1.69-2.16,3.56-3.41,5.24S92.6,57.4,91.24,59c-.64,2-2.49,3.36-3.24,5.34a4,4,0,0,1-.52.8,42.56,42.56,0,0,0-3.58,5.14c-.86,1.72-2.47,3-3.06,4.88-1.69,1.75-2.65,4-4.12,5.93-2.46,3.18-4.91,6.37-7.43,9.5C67.27,93.09,65.2,95.58,62,97ZM26.8,131c1.23-1.07,1.74-2.66,2.72-3.9,1.4-1.76,2.36-3.81,3.71-5.6s2.22-3.91,3.78-5.57c.64-1.86,2.13-3.19,3.06-4.88a50.35,50.35,0,0,1,2.71-4.53c1.1-1.58,2-3.31,3.18-4.8s1.61-3.14,2.82-4.44a13.55,13.55,0,0,1,.94-1.08,3,3,0,0,1,.88-.37.71.71,0,0,1,.16.86c-1,1.66-1.89,3.34-2.85,5C46,105,44.22,108.42,42,111.57c-1,1.45-1.66,3.11-2.8,4.48-.66,1.85-2.1,3.21-3.08,4.87-1.62,2.76-3.34,5.45-5.05,8.15s-4,5.44-5.43,8.49a24,24,0,0,0-2.43,3.58,41.88,41.88,0,0,0-2.44,3.57c-.64,1.32-1.58,2.42-2.33,3.65s-1.58,2.42-2.26,3.68a5.13,5.13,0,0,0-.45,1.85c0,.26.22.55.43,1,1.26.19,2.57,1,3.88.38A49.45,49.45,0,0,0,23,150.17c1.23-2.25,2.87-4.24,4-6.53,1.12-.81,1.07-2.31,2-3.28a29.39,29.39,0,0,0,2.32-3.08,15.07,15.07,0,0,0,2.2-3.15c.46-1.2,1.54-2.07,1.85-3.36,2-1.95,2.92-4.59,4.59-6.75a13,13,0,0,0,2.56-4.56l1.78-1.63c1.63-2.56,2.65-4.92,4.36-6.88a23,23,0,0,0,1.77-2.29c1.61-2.39,3.49-4.58,5-7.06,1.16-1.91,2.73-3.56,4.08-5.37a5.89,5.89,0,0,0,1.4-2.34,2.14,2.14,0,0,0-1.31-1.38,10.69,10.69,0,0,1-3-1.4c-.88-.66-2.12-.76-2.91-1.63-6.23-1.63-7.74-1.93-8.71-1.66l-1.17,1.06L43,91.18c-2.29,2.85-3.8,6-5.59,9.09a6.78,6.78,0,0,1-1.59,2.93,13.88,13.88,0,0,0-1.33,2c-.63,1.11-1.19,2.27-1.82,3.38s-1.58,2-1.87,3.33c-1,1.06-1.24,2.63-2.33,3.65-.14,1.37-1.32,2.17-1.8,3.37s-1.44,2.49-2.09,3.77-1.71,2.71-2.35,4.16-1.79,2.3-2,3.79c-1.06,1-1.31,2.59-2.38,3.61-.22,1.48-1.51,2.46-1.86,3.89A9.69,9.69,0,0,0,14,142a10.88,10.88,0,0,1-1.07,1.6c-.25.41-.38.88-.62,1.3a17.79,17.79,0,0,0-1,1.62,7.39,7.39,0,0,1-1,1.63A1.33,1.33,0,0,0,10,149a1.27,1.27,0,0,0,.49.71.54.54,0,0,0,.85-.08c1.25-2.23,2.45-4.48,3.73-6.7.56-1,1.16-1.91,1.69-2.9a17,17,0,0,0,1.48-3,3.21,3.21,0,0,1,.43-.85A20.41,20.41,0,0,0,20.81,133a12.52,12.52,0,0,1,1.87-2.79c.81-1,1.17-2.28,2-3.28a10.44,10.44,0,0,0,1.86-2.79c.41-1.09,1.41-1.76,1.71-2.9s1.23-1.85,1.71-2.89c.8-1.73,2.34-3,3-4.89.11-.29.41-.5.6-.76.37-.52.73-1.06,1.09-1.59.63-.93,1.61-1.65,1.93-2.74s1.29-1.82,1.75-2.87c.83-1.91,2.42-3.37,3.36-5.26a10.32,10.32,0,0,1,1.93-2.12c.21-1.19,1.27-1.83,1.82-2.81.07-.12.27-.18.4-.26.11.26.35.56.29.78a10.82,10.82,0,0,1-.79,2.26c-.59,1.13-1.31,2.19-1.95,3.3s-1.37,2.54-2.12,3.77c-1.5,2.46-2.72,5.07-4.39,7.42-1.11,1.57-2,3.27-3,4.93-.72,1.24-1.37,2.53-2.12,3.75a30.8,30.8,0,0,0-2.1,3.21c-.53,1.18-1.55,2-1.91,3.34-.2.74-1.08,1.18-1.26,2C26.46,130.22,26.36,130.66,26.8,131ZM9.2,170.36a5,5,0,0,0,.62-.43,57.1,57.1,0,0,0,4.94-6.43,2.34,2.34,0,0,0,.16-.45c.15-.36-.06-1.16-.41-1.26a10.4,10.4,0,0,1-4-2.58c-.61-.55-1-.53-1.72,0L8,162.41,7,164c-1,4.32-1,4.32-.73,5.65A6.31,6.31,0,0,0,9.2,170.36ZM112.85,12.78a35.87,35.87,0,0,0,3.48-4.53l-.5-1.3c-1.21-.67-2.54-.79-3.57-1.65a4.12,4.12,0,0,0-1.8-.6,6.37,6.37,0,0,0-1.32,0A12.73,12.73,0,0,0,106,7c-.06.07,0,.24,0,.37A14.66,14.66,0,0,1,109.88,10l2,2.66Z"></path><path d="M88.2,8.25l1.34.27c1.1.93,1.78,1.93.84,3.31a18.9,18.9,0,0,0-2.6,1.25A31.07,31.07,0,0,0,83.95,16a184.73,184.73,0,0,0-13.51,14.4c-2.93,3.42-5.79,6.89-8.53,10.46-1.27,1.66-2.39,3.41-3.58,5.12a34.34,34.34,0,0,0-3.47,5.2,18.5,18.5,0,0,1-2.19,3.06c-.57,1.59-.84,3.19-1.88,4.52A7.28,7.28,0,0,0,50,61.1l-1.72,2.2-1.13-.18-1-1.62a46.14,46.14,0,0,1,1.48-7.11,1.06,1.06,0,0,1,.21-.43c.92-1,.92-2.42,1.59-3.49s1.08-2,1.65-2.93c.82-1.37,1.73-2.7,2.48-4.11a29.12,29.12,0,0,1,2.77-3.93q1.45-1.93,2.94-3.82c3-3.81,6.22-7.37,9.46-10.95,2.27-2.5,4.56-5,7-7.32C79.47,13.83,83.33,10.39,88.2,8.25Z"></path><path d="M94.52,25.12a6.13,6.13,0,0,1,0,1.58,4.1,4.1,0,0,1-.73,1.22c-1.45,1.92-2.94,3.82-4.37,5.76-.26.35-.31.84.3,1.3a6,6,0,0,0,1.06-.89,47.59,47.59,0,0,0,4.81-6.6,18.59,18.59,0,0,1,3.21-4.19l2.69-2.74a4.47,4.47,0,0,1,2-1.32.73.73,0,0,1,.16,1.16,22.09,22.09,0,0,0-4.41,5.07,59.29,59.29,0,0,0-3.36,5.26c-.5,1.06-1.4,1.76-1.94,2.75a17.36,17.36,0,0,0-3.5,4,20,20,0,0,0-3,4.37,11.64,11.64,0,0,1-1.69,2.34c-1.37,1.79-2.88,3.48-4.1,5.36s-2.55,3.7-3.82,5.55-2.61,4-4.07,6S71,64.57,69.68,66.38a36.63,36.63,0,0,0-2.08,3.21c-.65,1.11-1.68,1.93-2.12,3.21a8,8,0,0,1-1.32,2,25.65,25.65,0,0,0-3,4.35c-.25.52-1,.82-1.24,1-1.27.38-1.66-.54-2.5-1l-1.64.35c-.18-.62-.47.18-.25-.43.43-1.21,1.53-2.06,1.79-3.36,2-2.32,3.24-5.17,5.25-7.49a28.75,28.75,0,0,0,2-3.27,23.23,23.23,0,0,0,2-2.73A19.74,19.74,0,0,1,69,58.69q5-6.53,10-13c1.68-2.15,3.2-4.41,4.77-6.64C87.1,34.35,90.68,29.81,94.52,25.12ZM79.35,48.93a1.43,1.43,0,0,0-1.59.65c-1.18,1.41-2.28,2.89-3.38,4.31L74,55.76a.76.76,0,0,0-.85.23q-2.6,3.42-5.18,6.85a2.16,2.16,0,0,0-.45.83,10.36,10.36,0,0,0,0,1.56c2.31-2.54,4.12-5.15,6.09-7.73l.36-1.82c.16,0,.39.07.47,0A59.58,59.58,0,0,0,79,49.74a2.53,2.53,0,0,0,.21-.92c.15,0,.36,0,.45-.06a8.77,8.77,0,0,0,1.92-2.5c.08-.15-.14-.46-.26-.79L79.86,46.7Z"></path></g></g></g>
</svg>
</g><g opacity="1" transform="rotate(0 142.2867 429.4679)">
<svg width="265.273" height="27.9879" x="142.2867" y="429.4679" version="1.1" preserveAspectRatio="none" viewBox="0.16 -29.68 356.76 37.64">
  <g transform="matrix(1 0 0 1 0 0)" class="a6izo4zJpcolor"><path id="id-6izo4zJp14" d="M10 0L10-25.44L0.16-25.44L0.16-28L22.80-28L22.80-25.44L12.96-25.44L12.96 0L10 0Z M41.64-21.20Q45.60-21.20 47.94-18.90Q50.28-16.60 50.28-12.20L50.28-12.20L50.28 0L47.44 0L47.44-11.92Q47.44-15.20 45.80-16.92Q44.16-18.64 41.12-18.64L41.12-18.64Q37.72-18.64 35.74-16.62Q33.76-14.60 33.76-11.04L33.76-11.04L33.76 0L30.92 0L30.92-29.68L33.76-29.68L33.76-17.36Q34.92-19.20 36.96-20.20Q39-21.20 41.64-21.20L41.64-21.20Z M80.44-10.52L80.40-9.64L62.80-9.64Q63.04-6.36 65.32-4.34Q67.60-2.32 71.08-2.32L71.08-2.32Q73.04-2.32 74.68-3.02Q76.32-3.72 77.52-5.08L77.52-5.08L79.12-3.24Q77.72-1.56 75.62-0.68Q73.52 0.20 71 0.20L71 0.20Q67.76 0.20 65.26-1.18Q62.76-2.56 61.36-5Q59.96-7.44 59.96-10.52L59.96-10.52Q59.96-13.60 61.30-16.04Q62.64-18.48 64.98-19.84Q67.32-21.20 70.24-21.20L70.24-21.20Q73.16-21.20 75.48-19.84Q77.80-18.48 79.12-16.06Q80.44-13.64 80.44-10.52L80.44-10.52ZM70.24-18.76Q67.20-18.76 65.14-16.82Q63.08-14.88 62.80-11.76L62.80-11.76L77.72-11.76Q77.44-14.88 75.38-16.82Q73.32-18.76 70.24-18.76L70.24-18.76Z M124.52-25.44L108.28-25.44L108.28-14.44L122.76-14.44L122.76-11.88L108.28-11.88L108.28 0L105.32 0L105.32-28L124.52-28L124.52-25.44Z M134.04 0L134.04-29.68L136.88-29.68L136.88 0L134.04 0Z M157.40 0.20Q154.36 0.20 151.92-1.18Q149.48-2.56 148.08-5Q146.68-7.44 146.68-10.52L146.68-10.52Q146.68-13.60 148.08-16.04Q149.48-18.48 151.92-19.84Q154.36-21.20 157.40-21.20L157.40-21.20Q160.44-21.20 162.88-19.84Q165.32-18.48 166.70-16.04Q168.08-13.60 168.08-10.52L168.08-10.52Q168.08-7.44 166.70-5Q165.32-2.56 162.88-1.18Q160.44 0.20 157.40 0.20L157.40 0.20ZM157.40-2.32Q159.64-2.32 161.42-3.34Q163.20-4.36 164.20-6.24Q165.20-8.12 165.20-10.52L165.20-10.52Q165.20-12.92 164.20-14.80Q163.20-16.68 161.42-17.70Q159.64-18.72 157.40-18.72L157.40-18.72Q155.16-18.72 153.38-17.70Q151.60-16.68 150.58-14.80Q149.56-12.92 149.56-10.52L149.56-10.52Q149.56-8.12 150.58-6.24Q151.60-4.36 153.38-3.34Q155.16-2.32 157.40-2.32L157.40-2.32Z M205.56-21.04L208.16-21.04L200.20 0L197.52 0L190.88-17.24L184.24 0L181.56 0L173.64-21.04L176.36-21.04L182.96-3.16L189.72-21.04L192.16-21.04L198.88-3.16L205.56-21.04Z M231.12-21.04L233.92-21.04L223.40 2.52Q222.12 5.48 220.44 6.72Q218.76 7.96 216.40 7.96L216.40 7.96Q214.88 7.96 213.56 7.48Q212.24 7 211.28 6.04L211.28 6.04L212.60 3.92Q214.20 5.52 216.44 5.52L216.44 5.52Q217.88 5.52 218.90 4.72Q219.92 3.92 220.80 2L220.80 2L221.72-0.04L212.32-21.04L215.28-21.04L223.20-3.16L231.12-21.04Z M267.48-28Q272.84-28 275.88-25.44Q278.92-22.88 278.92-18.40L278.92-18.40Q278.92-13.92 275.88-11.38Q272.84-8.84 267.48-8.84L267.48-8.84L259.96-8.84L259.96 0L257 0L257-28L267.48-28ZM267.40-11.44Q271.56-11.44 273.76-13.26Q275.96-15.08 275.96-18.40L275.96-18.40Q275.96-21.80 273.76-23.62Q271.56-25.44 267.40-25.44L267.40-25.44L259.96-25.44L259.96-11.44L267.40-11.44Z M297.20 0.20Q294.16 0.20 291.72-1.18Q289.28-2.56 287.88-5Q286.48-7.44 286.48-10.52L286.48-10.52Q286.48-13.60 287.88-16.04Q289.28-18.48 291.72-19.84Q294.16-21.20 297.20-21.20L297.20-21.20Q300.24-21.20 302.68-19.84Q305.12-18.48 306.50-16.04Q307.88-13.60 307.88-10.52L307.88-10.52Q307.88-7.44 306.50-5Q305.12-2.56 302.68-1.18Q300.24 0.20 297.20 0.20L297.20 0.20ZM297.20-2.32Q299.44-2.32 301.22-3.34Q303.00-4.36 304.00-6.24Q305.00-8.12 305.00-10.52L305.00-10.52Q305.00-12.92 304.00-14.80Q303.00-16.68 301.22-17.70Q299.44-18.72 297.20-18.72L297.20-18.72Q294.96-18.72 293.18-17.70Q291.40-16.68 290.38-14.80Q289.36-12.92 289.36-10.52L289.36-10.52Q289.36-8.12 290.38-6.24Q291.40-4.36 293.18-3.34Q294.96-2.32 297.20-2.32L297.20-2.32Z M336.04-10.52L336-9.64L318.40-9.64Q318.64-6.36 320.92-4.34Q323.20-2.32 326.68-2.32L326.68-2.32Q328.64-2.32 330.28-3.02Q331.92-3.72 333.12-5.08L333.12-5.08L334.72-3.24Q333.32-1.56 331.22-0.68Q329.12 0.20 326.60 0.20L326.60 0.20Q323.36 0.20 320.86-1.18Q318.36-2.56 316.96-5Q315.56-7.44 315.56-10.52L315.56-10.52Q315.56-13.60 316.90-16.04Q318.24-18.48 320.58-19.84Q322.92-21.20 325.84-21.20L325.84-21.20Q328.76-21.20 331.08-19.84Q333.40-18.48 334.72-16.06Q336.04-13.64 336.04-10.52L336.04-10.52ZM325.84-18.76Q322.80-18.76 320.74-16.82Q318.68-14.88 318.40-11.76L318.40-11.76L333.32-11.76Q333.04-14.88 330.98-16.82Q328.92-18.76 325.84-18.76L325.84-18.76Z M355.92-3.32L356.92-1.28Q356.12-0.56 354.94-0.18Q353.76 0.20 352.48 0.20L352.48 0.20Q349.52 0.20 347.92-1.40Q346.32-3 346.32-5.92L346.32-5.92L346.32-18.64L342.56-18.64L342.56-21.04L346.32-21.04L346.32-25.64L349.16-25.64L349.16-21.04L355.56-21.04L355.56-18.64L349.16-18.64L349.16-6.08Q349.16-4.20 350.10-3.22Q351.04-2.24 352.80-2.24L352.80-2.24Q353.68-2.24 354.50-2.52Q355.32-2.80 355.92-3.32L355.92-3.32Z"/></g>
</svg>
</g><g opacity="1" transform="rotate(0 255.999 267.0311)">
<svg width="179.5386" height="144.5979" x="255.999" y="267.0311" version="1.1" preserveAspectRatio="none" viewBox="2.64 -28.8 40.08 32.28">
  <g transform="matrix(1 0 0 1 0 0)" class="aD6z1nYkhcolor"><path id="id-D6z1nYkh2" d="M6.08 3.48Q4.40 3.36 3.88 2.60Q3.36 1.84 3.36 0.32L3.36 0.32Q3.36-1.36 4.16-3.92Q4.96-6.48 6.64-11.08L6.64-11.08Q6.88-11.64 7.28-12.76L7.28-12.76Q6.28-12.68 4.20-12.40L4.20-12.40L2.84-12.20Q3-14.84 8.08-15L8.08-15Q10.68-22.16 12.72-26.40L12.72-26.40Q11.68-26.48 11.16-26.48L11.16-26.48Q8.60-26.48 7.22-25.96Q5.84-25.44 5.30-24.40Q4.76-23.36 4.76-21.60L4.76-21.60Q4.76-19.96 5.28-18.44L5.28-18.44Q2.64-18.88 2.64-21.56L2.64-21.56Q2.64-23.60 4.10-25.20Q5.56-26.80 8.08-27.70Q10.60-28.60 13.64-28.60L13.64-28.60Q15.12-28.60 17.84-28.28L17.84-28.28Q18.24-28.24 19.44-28.12Q20.64-28 21.60-28L21.60-28Q23.20-28 24.56-28.40L24.56-28.40Q23.16-26.80 22.16-26.20Q21.16-25.60 20.04-25.60L20.04-25.60Q19.28-25.60 17.32-25.88L17.32-25.88Q16.32-26.08 14.36-26.28L14.36-26.28Q13.24-23.56 10.52-14.96L10.52-14.96Q12.44-14.84 14.12-14.60L14.12-14.60Q16.64-14.36 17.52-14.32L17.52-14.32Q17.08-13.68 16.46-13.42Q15.84-13.16 14.54-13.08Q13.24-13 9.92-12.92L9.92-12.92L8.16-6.96Q6.16-0.24 6.08 3.48L6.08 3.48Z M22.76 3.48Q21.68 3.48 20.84 2.90Q20 2.32 20 1.48L20 1.48Q20 0.88 20.56-0.72L20.56-0.72Q23.60-10.16 25.60-15.76Q27.60-21.36 30.40-27.72L30.40-27.72Q28.20-27.28 25.76-25.92L25.76-25.92Q24.96-25.52 24.84-25.52L24.84-25.52Q24.56-25.52 24.08-25.92Q23.60-26.32 23.60-26.60L23.60-26.60Q28.72-28.80 32.44-28.80L32.44-28.80Q34.92-28.80 37.30-27.90Q39.68-27 41.20-25.26Q42.72-23.52 42.72-21.08L42.72-21.08Q42.72-17.32 39.76-15.26Q36.80-13.20 33.32-12.52Q29.84-11.84 27.48-11.84L27.48-11.84L27.08-11.84Q26.88-11.16 24.68-3.28L24.68-3.28Q23.28 1.80 22.76 3.48L22.76 3.48ZM27.24-12.48Q30.40-12.64 33.32-13.72Q36.24-14.80 38.14-16.84Q40.04-18.88 40.04-21.76L40.04-21.76Q40.04-24.80 37.96-26.36Q35.88-27.92 32.80-27.96L32.80-27.96Q30.36-23.12 27.24-12.48L27.24-12.48Z"/></g>
</svg>
</g></svg>